{"title":"Godspell","uid":6082968,"size":888652704,"categoryP":"video","categoryS":"movies","magnet":"?xt=urn:btih:aaab337f076a636d833b1e16a4f4aedc1cf272b8&amp;dn=Godspell&amp;tr=udp%3A%2F%2Ftracker.openbittorrent.com%3A80&amp;tr=udp%3A%2F%2Fopen.demonii.com%3A1337&amp;tr=udp%3A%2F%2Ftracker.coppersurfer.tk%3A6969&amp;tr=udp%3A%2F%2Fexodus.desync.com%3A6969","seeders":8,"leechers":0,"uploader":"tiburon1978","files":-1,"time":1294194134,"description":"Godspell\n\nStoryline\n\nA modern-day version of the gospels, opening with John the Baptist calling a disparate group of young New Yorkers from their workaday lives to follow and learn from Jesus. They form a roving acting troupe that enacts the parables through song and dance, comedy, and mime. Jesus' ministry ends with a last supper, his Crucifixion in a junkyard, and, the following morning, his body being carried aloft by his apostles back into the world of the living on the streets of New York. Written by Steven Dhuey &lt;&lt;a class=&quot;__cf_email__&quot; href=&quot;/cdn-cgi/l/email-protection&quot; data-cfemail=&quot;51223539243428113c30383d7f223e343c303538223e3f7f263822327f343524&quot;&gt;[email&amp;#160;protected]&lt;/a&gt;&lt;script cf-hash='f9e31' type=&quot;text/javascript&quot;&gt;\n/* &lt;![CDATA[ */!function(){try{var t=&quot;currentScript&quot;in document?document.currentScript:function(){for(var t=document.getElementsByTagName(&quot;script&quot;),e=t.length;e--;)if(t[e].getAttribute(&quot;cf-hash&quot;))return t[e]}();if(t&amp;&amp;t.previousSibling){var e,r,n,i,c=t.previousSibling,a=c.getAttribute(&quot;data-cfemail&quot;);if(a){for(e=&quot;&quot;,r=parseInt(a.substr(0,2),16),n=2;a.length-n;n+=2)i=parseInt(a.substr(n,2),16)^r,e+=String.fromCharCode(i);e=document.createTextNode(e),c.parentNode.replaceChild(e,c)}}}catch(u){}}();/* ]]&gt; */&lt;/script&gt;&gt;   \n &lt;a href=&quot;\nhttp://www.imdb.com/title/tt0070121/&quot; rel=&quot;nofollow&quot; target=&quot;_NEW&quot;&gt;\nhttp://www.imdb.com/title/tt0070121/&lt;/a&gt;\n &lt;a href=&quot;\nhttp://bayimg.com/OacPdaadg.jpg&quot; rel=&quot;nofollow&quot; target=&quot;_NEW&quot;&gt;\nhttp://bayimg.com/OacPdaadg.jpg&lt;/a&gt;\n &lt;a href=&quot;\nhttp://img830.imageshack.us/img830/6475/godspelld.jpg&quot; rel=&quot;nofollow&quot; target=&quot;_NEW&quot;&gt;\nhttp://img830.imageshack.us/img830/6475/godspelld.jpg&lt;/a&gt;\n\nGeneral\nComplete name                    : Godspell.avi\nFormat                           : AVI\nFormat/Info                      : Audio Video Interleave\nFile size                        : 847 MiB\nDuration                         : 1h 41mn\nOverall bit rate                 : 1 163 Kbps\nMovie name                       : DVD VIDEO.Title1.DVDRip\nWriting application              : Lavf52.17.0\nOriginal source form/Name        : DVD VIDEO\n\nVideo\nID                               : 0\nFormat                           : MPEG-4 Visual\nFormat profile                   : Simple@L3\nFormat settings, BVOP            : No\nFormat settings, QPel            : No\nFormat settings, GMC             : No warppoints\nFormat settings, Matrix          : Default (H.263)\nCodec ID                         : XVID\nCodec ID/Hint                    : XviD\nDuration                         : 1h 41mn\nBit rate                         : 896 Kbps\nWidth                            : 720 pixels\nHeight                           : 400 pixels\nDisplay aspect ratio             : 16:9\nFrame rate                       : 23.976 fps\nColor space                      : YUV\nChroma subsampling               : 4:2:0\nBit depth                        : 8 bits\nScan type                        : Progressive\nCompression mode                 : Lossy\nBits/(Pixel*Frame)               : 0.130\nStream size                      : 653 MiB (77%)\nWriting library                  : XviD 1.1.2 (UTC 2006-11-01)\n\nAudio\nID                               : 1\nFormat                           : AC-3\nFormat/Info                      : Audio Coding 3\nMode extension                   : CM (complete main)\nCodec ID                         : 2000\nDuration                         : 1h 41mn\nBit rate mode                    : Constant\nBit rate                         : 256 Kbps\nChannel(s)                       : 2 channels\nChannel positions                : Front: L R\nSampling rate                    : 48.0 KHz\nBit depth                        : 16 bits\nCompression mode                 : Lossy\nStream size                      : 186 MiB (22%)\nAlignment                        : Aligned on interleaves\nInterleave, duration             : 32 ms (0.77 video frame)\nInterleave, preload duration     : 32 ms\n\n","torrent":{"xt":"urn:btih:aaab337f076a636d833b1e16a4f4aedc1cf272b8","amp;dn":"Godspell","amp;tr":["udp%3A%2F%2Ftracker.openbittorrent.com%3A80","udp%3A%2F%2Fopen.demonii.com%3A1337","udp%3A%2F%2Ftracker.coppersurfer.tk%3A6969","udp%3A%2F%2Fexodus.desync.com%3A6969"],"infoHash":"aaab337f076a636d833b1e16a4f4aedc1cf272b8","infoHashBuffer":{"type":"Buffer","data":[170,171,51,127,7,106,99,109,131,59,30,22,164,244,174,220,28,242,114,184]},"announce":[],"urlList":[]}}